<svg xmlns="http://www.w3.org/2000/svg" viewBox="0 0 512 512"><path fill="#61dafb" d="M512 256.1c0-33.9-42.5-66.1-107.6-86 15-66.4 8.3-119.2-21.1-136.1-6.8-4-14.7-5.8-23.4-5.8v23.3c4.8 0 8.7.9 11.9 2.7 14.2 8.1 20.4 39.1 15.5 79-1.1 9.8-3 20.1-5.3 30.7-20.5-5-42.8-8.9-66.3-11.4-14.1-19.3-28.7-36.8-43.4-52.2 34-31.6 66-48.9 87.7-48.9V28c-28.7 0-66.3 20.5-104.3 55.9-38-35.3-75.6-55.5-104.3-55.5v23.3c21.6 0 53.6 17.2 87.7 48.6-14.6 15.3-29.2 32.8-43.1 52.1-23.6 2.5-45.9 6.4-66.4 11.5-2.4-10.4-4.2-20.6-5.4-30.3-4.9-39.9 1.1-70.9 15.2-79.1 3.1-1.9 7.2-2.7 12-2.7V28.5c-8.8 0-16.7 1.9-23.6 5.8-29.2 17-35.8 69.7-20.6 135.9C42.3 190.2 0 222.2 0 256.1c0 33.9 42.5 66.1 107.6 86-15 66.4-8.3 119.2 21.1 136.1 6.8 4 14.7 5.8 23.5 5.8 28.7 0 66.3-20.5 104.3-55.9 38 35.3 75.6 55.5 104.3 55.5 8.8 0 16.7-1.9 23.6-5.8 29.3-16.9 35.9-69.6 20.8-135.8 64.5-20 106.8-52.1 106.8-85.9zm-135.9-69.7c-3.9 13.5-8.7 27.3-14.1 41.2-4.3-8.3-8.8-16.7-13.7-25-4.8-8.3-9.9-16.5-15-24.4 14.9 2.2 29.1 4.9 42.8 8.2zm-47.8 111.2c-8.1 14.1-16.5 27.4-25.2 39.9-15.5 1.4-31.3 2.1-47.2 2.1-15.8 0-31.5-.7-47-2-8.7-12.4-17.1-25.7-25.3-39.7-7.9-13.7-15.1-27.6-21.7-41.5 6.5-14 13.8-28 21.6-41.6 8.1-14.1 16.5-27.4 25.2-39.9 15.5-1.4 31.3-2.1 47.2-2.1 15.8 0 31.5.7 47 2 8.7 12.4 17.1 25.7 25.3 39.7 7.9 13.7 15.1 27.6 21.7 41.5-6.5 13.9-13.8 27.9-21.6 41.6zM362 284c5.6 14 10.4 28 14.4 41.5-13.7 3.3-28.1 6.2-43 8.3 5.1-8 10.2-16.3 15-24.7 4.9-8.3 9.4-16.7 13.6-25.1zM256.2 395.4c-9.7-10-19.4-21.2-29-33.4 9.4.4 19 .7 28.7.7 9.8 0 19.5-.2 29-.7-9.4 12.2-19.1 23.4-28.7 33.4zm-77.6-61.5c-14.8-2.2-29.1-4.9-42.8-8.2 3.9-13.5 8.7-27.3 14.1-41.2 4.3 8.3 8.8 16.7 13.7 25 4.8 8.3 9.8 16.5 15 24.4zm77.1-217.2c9.7 10 19.4 21.2 29 33.4-9.4-.4-19-.7-28.7-.7-9.8 0-19.5.2-29 .7 9.4-12.2 19.1-23.4 28.7-33.4zm-77.2 61.5c-5.1 8-10.2 16.3-15 24.7-4.8 8.3-9.3 16.7-13.6 25-5.6-14-10.4-28-14.4-41.5 13.6-3.2 28-6 43-8.2zM84 308.9c-36.9-15.8-60.8-36.4-60.8-52.8s23.9-37.2 60.8-52.8c9-3.9 18.8-7.3 28.9-10.5 5.9 20.5 13.8 41.7 23.5 63.6-9.6 21.7-17.3 42.9-23.2 63.2-10.3-3.3-20.1-6.9-29.2-10.7zM140.2 458c-14.2-8.1-20.4-39.1-15.5-79 1.1-9.8 3-20.1 5.3-30.7 20.5 5 42.8 8.9 66.3 11.4 14.1 19.3 28.7 36.8 43.4 52.2-34 31.6-66 48.9-87.7 48.9-4.7-.1-8.7-1-11.8-2.8zm247.5-79.5c4.9 39.9-1.1 70.9-15.2 79.1-3.1 1.9-7.2 2.7-12 2.7-21.6 0-53.6-17.2-87.7-48.6 14.6-15.3 29.2-32.8 43.1-52.1 23.6-2.5 45.9-6.4 66.4-11.5 2.4 10.5 4.3 20.7 5.4 30.4zm40.2-69.6c-9 3.9-18.8 7.3-28.9 10.5-5.9-20.5-13.8-41.7-23.5-63.6 9.6-21.7 17.3-42.9 23.2-63.2 10.3 3.2 20.1 6.8 29.3 10.6 36.9 15.8 60.8 36.4 60.8 52.8-.1 16.4-24 37.2-60.9 52.9z"/><circle fill="#61dafb" cx="255.9" cy="256.1" r="47.7"/></svg>
